<svg width="20" height="18" viewBox="0 0 20 18" fill="none" xmlns="http://www.w3.org/2000/svg">
<path d="M19.006 2.345C18.815 2.126 18.54 2 18.25 2H4.431L4.236 0.836C4.156 0.354 3.739 0 3.25 0H1C0.447 0 0 0.447 0 1C0 1.553 0.447 2 1 2H2.403L4.263 13.164C4.271 13.209 4.294 13.246 4.308 13.288C4.324 13.341 4.337 13.391 4.362 13.439C4.394 13.505 4.437 13.561 4.482 13.618C4.513 13.657 4.541 13.696 4.577 13.73C4.635 13.784 4.702 13.822 4.77 13.86C4.808 13.881 4.841 13.909 4.882 13.925C4.998 13.972 5.12 14 5.249 14C5.25 14 16.25 14 16.25 14C16.803 14 17.25 13.553 17.25 13C17.25 12.447 16.803 12 16.25 12H6.097L5.931 11H17.25C17.748 11 18.17 10.634 18.24 10.142L19.24 3.142C19.281 2.854 19.195 2.563 19.006 2.345ZM17.097 4L16.812 6H13.25V4H17.097ZM12.25 4V6H9.25V4H12.25ZM12.25 7V9H9.25V7H12.25ZM8.25 4V6H5.25C5.197 6 5.149 6.015 5.102 6.03L4.764 4H8.25ZM5.264 7H8.25V9H5.597L5.264 7ZM13.25 9V7H16.668L16.383 9H13.25Z" fill="white"/>
<path d="M6.75 18C7.57843 18 8.25 17.3284 8.25 16.5C8.25 15.6716 7.57843 15 6.75 15C5.92157 15 5.25 15.6716 5.25 16.5C5.25 17.3284 5.92157 18 6.75 18Z" fill="white"/>
<path d="M15.75 18C16.5784 18 17.25 17.3284 17.25 16.5C17.25 15.6716 16.5784 15 15.75 15C14.9216 15 14.25 15.6716 14.25 16.5C14.25 17.3284 14.9216 18 15.75 18Z" fill="white"/>
</svg>
