<svg width="8" height="10" viewBox="0 0 8 10" fill="none" xmlns="http://www.w3.org/2000/svg">
<path d="M3.85738 0.00254518C1.86523 0.0722567 0.210236 1.62231 0.0190387 3.60089C-0.0200231 3.99661 0.00259168 4.38002 0.0724919 4.74703C0.0724919 4.74703 0.0786596 4.79009 0.0992185 4.8721C0.160895 5.14685 0.25341 5.41339 0.36854 5.66353C0.769438 6.61079 1.69664 8.1957 3.7772 9.92004C3.90467 10.0267 4.09176 10.0267 4.22128 9.92004C6.30184 8.19775 7.22904 6.61284 7.632 5.66148C7.74918 5.41134 7.83964 5.14685 7.90132 4.87005C7.91982 4.79009 7.92804 4.74498 7.92804 4.74498C7.97533 4.49894 8 4.24675 8 3.9884C8 1.73713 6.1312 -0.0774181 3.85738 0.00254518ZM3.99924 5.97313C2.92607 5.97313 2.05642 5.10584 2.05642 4.03556C2.05642 2.96529 2.92607 2.09799 3.99924 2.09799C5.07241 2.09799 5.94206 2.96529 5.94206 4.03556C5.94206 5.10584 5.07241 5.97313 3.99924 5.97313Z" fill="#979FAD"/>
</svg>
